<svg width="90" height="90" viewBox="0 0 90 90" fill="none" xmlns="http://www.w3.org/2000/svg">
<path d="M8.91284 9.8916H81.0985V80.1085H8.91284V9.8916Z" fill="#1C0A00"/>
<path d="M8.91281 9.89156H81.0984V80.1084H8.91281V9.89156ZM5.625 83.3906H84.375V6.60938H5.625V83.3906ZM57.2062 33.975C57.2062 33.7134 57.3047 33.5813 57.6 33.5813H62.7525C63.0141 33.5813 63.1462 33.6797 63.1462 33.975V59.8641C63.1462 60.1256 63.0816 60.2578 62.7525 60.2578H57.6703C57.3412 60.2578 57.2428 60.0947 57.2428 59.8303V33.975H57.2062ZM56.8462 26.5275C56.8462 25.6399 57.1989 24.7886 57.8265 24.1609C58.4542 23.5332 59.3055 23.1806 60.1931 23.1806C61.0808 23.1806 61.9321 23.5332 62.5597 24.1609C63.1874 24.7886 63.54 25.6399 63.54 26.5275C63.5724 26.9809 63.5059 27.436 63.345 27.8612C63.1841 28.2864 62.9327 28.6715 62.6082 28.9899C62.2837 29.3082 61.8938 29.5522 61.4656 29.7049C61.0374 29.8577 60.5812 29.9155 60.1284 29.8744C59.6849 29.9022 59.2405 29.8341 58.8256 29.6748C58.4107 29.5154 58.035 29.2686 57.724 28.951C57.4131 28.6334 57.1743 28.2525 57.0238 27.8343C56.8733 27.4161 56.8146 26.9704 56.8519 26.5275H56.8462ZM42.0806 44.7722C41.1609 41.1159 38.9869 33.1903 38.1769 29.3513H38.1122C37.4231 33.1903 35.685 39.6872 34.3069 44.7722H42.0806ZM32.9597 50.0878L30.3666 59.9316C30.3019 60.1931 30.2034 60.2606 29.8744 60.2606H25.0566C24.7275 60.2606 24.6628 60.1622 24.7275 59.7684L34.0453 27.1434C34.2715 26.2538 34.3821 25.3388 34.3744 24.4209C34.3744 24.1903 34.4728 24.0919 34.6359 24.0919H41.5266C41.7572 24.0919 41.8556 24.1566 41.9203 24.4209L52.3547 59.8247C52.4194 60.0863 52.3547 60.2522 52.0931 60.2522H46.6453C46.3837 60.2522 46.2178 60.1875 46.1531 59.9709L43.4616 50.0934H32.9625L32.9597 50.0878Z" fill="#FF7F18"/>
</svg>
