<svg width="89" height="89" viewBox="0 0 89 89" fill="none" xmlns="http://www.w3.org/2000/svg">
<path d="M19.4201 7.18539L44.5 4.55225L69.5799 7.18609L89 33.0392L44.5 84.4478L0 33.0392L19.4201 7.18539Z" fill="#FDB300"/>
<path d="M18.026 33.0392L44.5 84.4478L0 33.0392H18.026ZM70.974 33.0392L44.5 84.4478L89 33.0392H70.974Z" fill="#EA6C00"/>
<path d="M18.026 33.0392H70.974L44.5 84.4478L18.026 33.0392Z" fill="#FDAD00"/>
<path d="M44.5 4.55225L19.4201 7.18539L18.026 33.0392L44.5 4.55225ZM44.5 4.55225L69.5799 7.18539L70.974 33.0392L44.5 4.55225Z" fill="#FDD231"/>
<path d="M89 33.0391L69.58 7.1853L70.9741 33.0391H89Z" fill="#FDAD00"/>
<path d="M44.5 4.55225L18.026 33.0392H70.974L44.5 4.55225Z" fill="#FEEEB7"/>
<path d="M0 33.0391L19.4201 7.1853L18.026 33.0391H0Z" fill="#FDAD00"/>
</svg>
