<svg width="90" height="90" viewBox="0 0 90 90" fill="none" xmlns="http://www.w3.org/2000/svg">
<g clip-path="url(#clip0_45_182)">
<path d="M68.9062 0H21.0938C9.44399 0 0 9.44399 0 21.0938V68.9062C0 80.556 9.44399 90 21.0938 90H68.9062C80.556 90 90 80.556 90 68.9062V21.0938C90 9.44399 80.556 0 68.9062 0Z" fill="#0073AA"/>
<path d="M14.8408 44.9979C14.8408 56.9352 21.7782 67.2514 31.8378 72.1402L17.4519 32.7245C15.7278 36.5863 14.838 40.7686 14.8408 44.9979ZM65.3582 43.4759C65.3582 39.749 64.0195 37.1679 62.8713 35.1587C61.3423 32.6745 59.9094 30.5708 59.9094 28.0866C59.9094 25.3142 62.0121 22.7338 64.9736 22.7338C65.1076 22.7338 65.2341 22.7503 65.3646 22.7577C59.999 17.8421 52.8507 14.8408 44.9989 14.8408C34.4633 14.8408 25.1936 20.2464 19.8014 28.4343C20.5087 28.4554 21.1756 28.4705 21.742 28.4705C24.8966 28.4705 29.7794 28.0873 29.7794 28.0873C31.405 27.9917 31.597 30.3795 29.9728 30.5718C29.9728 30.5718 28.3391 30.7641 26.5211 30.8594L37.5032 63.5259L44.1031 43.7319L39.4045 30.8584C37.7806 30.7631 36.2422 30.5708 36.2422 30.5708C34.6169 30.4755 34.8075 27.9907 36.4327 28.0866C36.4327 28.0866 41.413 28.4691 44.3763 28.4691C47.5305 28.4691 52.4137 28.0866 52.4137 28.0866C54.0407 27.9907 54.2316 30.3785 52.6071 30.5708C52.6071 30.5708 50.9699 30.7631 49.1554 30.8584L60.0542 63.2773L63.0622 53.2255C64.3661 49.0538 65.3582 46.0578 65.3582 43.4759Z" fill="white"/>
<path d="M45.5284 47.636L36.4799 73.9293C39.2463 74.744 42.1153 75.1578 44.9993 75.158C48.4102 75.1591 51.7965 74.581 55.0139 73.4484C54.9302 73.3165 54.8585 73.1774 54.7994 73.0328L45.5284 47.636ZM71.4617 30.5289C71.5987 31.5568 71.6666 32.5927 71.6649 33.6297C71.6649 36.6901 71.0933 40.1305 69.3717 44.4322L60.1597 71.0662C69.1256 65.8378 75.1563 56.1244 75.1563 44.9985C75.1567 39.755 73.8176 34.8243 71.4617 30.5289Z" fill="white"/>
<path d="M44.9993 9.84375C25.6148 9.84375 9.84375 25.6138 9.84375 44.9979C9.84375 64.3845 25.6148 80.1538 44.9993 80.1538C64.3827 80.1538 80.1562 64.3845 80.1562 44.9979C80.1555 25.6138 64.3827 9.84375 44.9993 9.84375ZM44.9993 78.5426C26.5036 78.5426 11.4557 63.4943 11.4557 44.9979C11.4557 26.5025 26.5032 11.4557 44.9993 11.4557C63.4939 11.4557 78.5408 26.5025 78.5408 44.9979C78.5408 63.4943 63.4939 78.5426 44.9993 78.5426Z" fill="white"/>
</g>
<defs>
<clipPath id="clip0_45_182">
<rect width="90" height="90" fill="white"/>
</clipPath>
</defs>
</svg>
