<svg width="96" height="80" viewBox="0 0 96 80" fill="none" xmlns="http://www.w3.org/2000/svg">
<g clip-path="url(#clip0_45_147)">
<path d="M90.3225 60.8942C90.5708 61.5368 90.3672 62.0747 89.8163 62.5166C84.6589 66.6553 79.245 70.4097 73.3523 73.4474L68.4323 75.9805C69.447 76.7884 70.5923 77.0157 71.8084 76.9704C73.1397 76.9207 74.2549 76.3114 75.2847 75.5282C76.5158 74.5921 77.6798 73.5566 78.9732 72.7174C82.1044 70.6856 85.4794 70.8691 88.4412 73.1603C89.6993 74.1338 90.8558 75.2456 92.1612 76.1465C92.7923 76.582 93.6004 76.8194 94.3752 76.9902L94.5465 77.0273C95.4867 77.2246 96.0578 77.6964 95.9952 78.5058C95.9333 79.3088 95.295 79.7779 94.3313 79.7159C92.2894 79.5843 90.6889 78.5346 89.1889 77.265C88.2522 76.4725 87.3477 75.6276 86.3367 74.9402C84.462 73.6658 82.473 73.6288 80.5632 74.8523C79.4378 75.5734 78.4144 76.4557 77.361 77.2852C75.6634 78.6228 73.8312 79.6074 71.5958 79.6411C69.144 79.6781 67.1708 78.5813 65.3633 77.0744C64.7168 76.5353 64.0767 75.9884 63.4178 75.4646C60.948 73.5005 58.4175 73.5016 55.9392 75.4661C55.6507 75.6955 55.3642 75.9273 55.0797 76.1615L54.5097 76.6288C54.0363 77.0199 53.5551 77.4016 53.0663 77.7734C50.0325 80.0594 46.5582 80.1686 43.4145 78.028C42.2708 77.2493 41.2279 76.323 40.137 75.4661C37.6583 73.5203 35.601 73.526 33.078 75.4579L32.8718 75.6164L32.253 76.0931C31.428 76.7286 30.5974 77.3585 29.7255 77.9233C26.4405 80.0527 23.0967 79.9637 19.8315 77.9058C18.4804 77.0542 17.247 76.0172 15.9672 75.0531L15.7748 74.9088C15.264 74.5286 14.7593 74.139 14.235 73.7783C13.5038 73.2751 12.7163 73.1346 11.9243 73.6138C10.5248 74.4609 9.14179 75.3349 7.75579 76.2037C6.44591 77.0246 5.18029 77.9271 3.81829 78.6493C3.08029 79.0403 2.19379 79.2224 1.35266 79.3297C0.569665 79.4291 0.0311647 78.8497 0.00116474 78.1185C-0.0280853 77.3985 0.443665 76.9461 1.17679 76.7383L1.21954 76.7267C1.99879 76.5189 2.80166 76.2549 3.47779 75.8314C5.38541 74.6355 7.23416 73.3458 9.10391 72.0901C9.15716 72.0546 9.18791 71.9869 9.25129 71.9058L8.09066 69.7174C7.70266 68.9871 7.31604 68.2557 6.93079 67.523C6.25579 66.2377 6.69491 65.3757 8.14466 65.2725C12.0533 64.994 15.9645 64.7551 19.8747 64.5043L42.3825 63.0643C47.7027 62.723 53.0224 62.3783 58.3425 62.0362C65.8445 61.5537 73.3468 61.0715 80.8493 60.5895C82.8443 60.4617 84.8393 60.3368 86.8343 60.2067L88.8293 60.0747C89.5163 60.0288 90.0675 60.2355 90.3225 60.8942ZM84.615 63.1667L84.5479 63.0033L10.0703 67.7835L10.254 68.126C10.737 69.0276 11.1645 69.8418 11.6314 70.6329C11.6745 70.7058 11.8253 70.7207 11.9832 70.7263L12.1444 70.7301L12.1928 70.7319L12.2385 70.7346C12.8858 70.782 13.593 70.6684 14.1679 70.8946C15.0852 71.2557 15.9619 71.7731 16.7704 72.3435C18.2179 73.3652 19.5574 74.542 21.0229 75.5345C23.6277 77.2975 26.0805 77.2452 28.6429 75.4575C29.724 74.7031 30.7497 73.8695 31.821 73.1002C35.1705 70.6945 38.3438 70.7443 41.6134 73.2561C42.5689 73.9902 43.4798 74.782 44.4334 75.5181C46.8252 77.3641 49.2518 77.3708 51.6312 75.5372C52.4235 74.9267 53.178 74.2673 53.9558 73.6374C57.483 70.7809 61.0583 70.5054 64.527 73.0531L64.632 73.1308C65.742 73.9652 66.5682 73.9233 67.6744 73.3734L68.2129 73.105C73.1468 70.6388 77.9873 68.0183 82.4562 64.7618C83.1792 64.2347 83.8958 63.6987 84.615 63.1667ZM15.4564 0.252303C23.5174 3.87772 30.7564 8.75473 37.3358 14.6164C45.522 21.9106 51.9743 30.5237 56.7398 40.3745C59.2478 45.5596 61.1985 50.945 62.0948 56.6632L62.1375 56.9435L62.2028 57.3914C62.2039 58.4979 61.3148 59.148 60.3878 58.7745C55.7858 56.9207 51.0338 55.6351 46.1232 54.9009C39.6338 53.9304 33.2258 54.1719 26.9168 56.0654C22.7329 57.3215 18.753 59.0344 15.0548 61.3719C14.3719 61.8037 13.6478 61.7282 13.2023 61.2C12.7388 60.6516 12.7395 59.9895 13.2747 59.4104C17.1383 55.2284 19.3864 50.2059 20.877 44.8056C22.3332 39.5289 22.8649 34.1372 22.5387 28.6822C22.2938 24.5824 21.3075 20.6153 20.0168 16.7211C18.3469 11.683 16.1802 6.86688 13.5675 2.24744C13.1408 1.4923 13.1487 0.904266 13.5803 0.421275C14.0269 -0.0789119 14.6022 -0.131996 15.4564 0.252303ZM40.3077 9.66987C41.055 9.88707 42.0619 10.1016 43.0092 10.4688C46.7903 11.936 50.0479 14.2639 53.1514 16.8071C58.1952 20.9402 62.8133 25.5117 66.9435 30.5536C69.8179 34.0628 72.1759 37.923 74.3258 41.9073C76.7633 46.4258 78.8629 51.0968 80.6445 55.9088L80.7683 56.2448C80.8155 56.3727 80.8639 56.5002 80.907 56.6291C81.0949 57.1854 81.0717 57.7237 80.6344 58.1488C80.1882 58.5828 79.6527 58.6116 79.0875 58.391L79.0482 58.3753C78.2382 58.0433 77.4169 57.7372 76.6088 57.4018L76.263 57.2564C73.9883 56.283 71.6505 56.0886 69.243 56.6336C69.021 56.6841 68.796 56.7222 68.571 56.7566C67.6778 56.8938 67.1198 56.5458 66.876 55.6837C64.5312 47.3899 61.2252 39.4927 57.0398 31.9577L56.8305 31.5824C54.132 26.776 51.0428 22.256 47.028 18.416C44.6577 16.148 42.1632 14.034 39.408 12.2385C38.7698 11.8224 38.5305 11.2448 38.7405 10.6145C38.9475 9.99473 39.4302 9.75099 40.3077 9.66987ZM17.8669 4.40707C17.8744 4.61679 17.931 4.7809 18.0075 4.93417C19.7595 8.45679 21.2832 12.0751 22.5203 15.8086C23.694 19.3502 24.594 22.96 25.0253 26.6721C25.5079 30.8269 25.3095 34.9712 24.7377 39.1035C23.985 44.5458 22.4708 49.751 19.8593 54.6127L19.5555 55.179L19.095 56.04C19.1914 56.0661 19.2405 56.0972 19.272 56.0848C19.5472 55.9768 19.8204 55.8638 20.0914 55.7458C25.6339 53.3203 31.4093 51.8557 37.4753 51.705C44.4015 51.5331 51.1103 52.7779 57.6615 54.9461L58.1089 55.0942C58.4329 55.2003 58.7787 55.3095 59.2264 55.4542C56.5725 43.8736 51.0709 33.9196 43.6557 24.9656C36.507 16.3338 27.8123 9.58913 17.8669 4.40707ZM50.7784 18.4478L50.8662 18.5469L51.0405 18.7405C51.108 18.816 51.1692 18.8871 51.2265 18.9611C51.6346 19.486 52.0477 20.0068 52.4659 20.5237L53.148 21.3693C54.1725 22.6418 55.1843 23.9233 56.0738 25.2833C61.7007 33.8867 65.8384 43.1895 68.8545 52.9932L68.9457 53.2904C69.1024 53.8037 69.3177 53.948 69.8194 53.8725L69.8543 53.8669C72.1107 53.4923 74.316 53.6871 76.4543 54.508L76.5649 54.551C76.7693 54.6317 76.9875 54.6766 77.3835 54.7921C74.4867 47.5865 71.0629 40.8792 66.7305 34.6269C62.9843 29.2205 52.9527 19.6213 50.778 18.4474" fill="white"/>
</g>
<defs>
<clipPath id="clip0_45_147">
<rect width="96" height="80" fill="white"/>
</clipPath>
</defs>
</svg>
