<svg width="80" height="65" viewBox="0 0 80 65" fill="none" xmlns="http://www.w3.org/2000/svg">
<g clip-path="url(#clip0_45_167)">
<path d="M31.3843 35.9984C31.6753 30.809 34.2162 26.2375 38.05 22.9965C41.8093 19.8134 46.8693 17.8678 52.3906 17.8678C57.9062 17.8678 62.9665 19.8134 66.7287 22.9965C70.5593 26.2372 73.1006 30.809 73.3943 35.9928C73.685 41.3247 71.5418 46.2778 67.7825 49.9494C63.949 53.684 58.4962 56.0275 52.3906 56.0275C46.285 56.0275 40.8215 53.684 36.9906 49.9494C33.2284 46.2775 31.0906 41.3244 31.3843 35.9984Z" fill="white"/>
<path d="M41.6151 36.4613C41.7641 33.7988 43.0682 31.4528 45.0351 29.79C46.9641 28.1569 49.5604 27.1584 52.3935 27.1584C55.2235 27.1584 57.8201 28.1569 59.7504 29.79C61.716 31.4528 63.0197 33.7988 63.1704 36.4588C63.3197 39.1944 62.2204 41.7359 60.291 43.6197C58.3241 45.5359 55.5263 46.7384 52.3935 46.7384C49.2607 46.7384 46.4572 45.5359 44.4916 43.6197C42.5613 41.7359 41.4644 39.1944 41.6151 36.4613Z" fill="#265787"/>
<path d="M24.503 41.9312C24.5218 42.975 24.8546 45.0044 25.3543 46.5888C26.404 49.9428 28.1846 53.0459 30.6624 55.7803C33.2052 58.5912 36.3362 60.8491 39.953 62.4519C43.7543 64.1353 47.873 64.9931 52.1512 64.9862C56.4224 64.9803 60.5415 64.1056 64.3427 62.4094C67.9593 60.7909 71.0874 58.5234 73.6262 55.7112C76.1024 52.9653 77.8802 49.8569 78.933 46.5028C79.4621 44.8081 79.7965 43.0881 79.9305 41.3622C80.0617 39.6596 80.0063 37.9478 79.7655 36.2572C79.2943 32.9413 78.1468 29.83 76.3802 26.9938C74.7646 24.3875 72.6821 22.1059 70.2055 20.1853L70.2112 20.1813L45.2205 0.992192C45.1977 0.975317 45.1793 0.957192 45.1552 0.941567C43.5158 -0.317183 40.7583 -0.312808 38.9552 0.948442C37.1321 2.22407 36.9234 4.33375 38.5459 5.66407L38.539 5.67125L48.9624 14.1475L17.1927 14.1813H17.1502C14.5243 14.1844 12.0002 15.9072 11.5002 18.0844C10.9868 20.3025 12.7705 22.1425 15.5009 22.1525L15.4965 22.1622L31.5996 22.1309L2.8646 44.1875C2.82804 44.2144 2.78835 44.2425 2.7546 44.2694C0.0439749 46.345 -0.832275 49.7966 0.874912 51.9806C2.60772 54.2019 6.2921 54.2059 9.03085 51.9934L24.7134 39.1588C24.7134 39.1588 24.4846 40.8912 24.503 41.9312ZM64.8015 47.7331C61.5702 51.0253 57.0462 52.8919 52.1515 52.9019C47.2493 52.9103 42.7255 51.0603 39.4943 47.7741C37.9152 46.1725 36.7555 44.3297 36.0399 42.3669C35.3362 40.4353 35.0656 38.3727 35.2471 36.325C35.4177 34.3056 36.019 32.3797 36.9784 30.6369C37.9209 28.9241 39.219 27.3759 40.8221 26.0666C43.9627 23.5072 47.9618 22.1213 52.144 22.1156C56.3308 22.11 60.3268 23.4831 63.4708 26.0344C65.0708 27.3378 66.3677 28.8803 67.3102 30.5906C68.2821 32.3427 68.8744 34.2797 69.0487 36.2756C69.2275 38.3221 68.9558 40.3829 68.2527 42.3131C67.5358 44.2819 66.3802 46.1247 64.8015 47.7331Z" fill="#EA7600"/>
</g>
<defs>
<clipPath id="clip0_45_167">
<rect width="80" height="65" fill="white"/>
</clipPath>
</defs>
</svg>
