<svg width="61" height="91" viewBox="0 0 61 91" fill="none" xmlns="http://www.w3.org/2000/svg">
<g clip-path="url(#clip0_45_76)">
<path d="M15.25 91C23.668 91 30.5 84.2053 30.5 75.8333V60.6666H15.25C6.832 60.6666 0 67.4613 0 75.8333C0 84.2053 6.832 91 15.25 91Z" fill="#0ACF83"/>
<path d="M0 45.5C0 37.128 6.832 30.3334 15.25 30.3334H30.5V60.6667H15.25C6.832 60.6667 0 53.872 0 45.5Z" fill="#A259FF"/>
<path d="M0 15.1667C0 6.79467 6.832 0 15.25 0H30.5V30.3333H15.25C6.832 30.3333 0 23.5387 0 15.1667Z" fill="#F24E1E"/>
<path d="M30.5 0H45.75C54.168 0 61 6.79467 61 15.1667C61 23.5387 54.168 30.3333 45.75 30.3333H30.5V0Z" fill="#FF7262"/>
<path d="M61 45.5C61 53.872 54.168 60.6667 45.75 60.6667C37.332 60.6667 30.5 53.872 30.5 45.5C30.5 37.128 37.332 30.3334 45.75 30.3334C54.168 30.3334 61 37.128 61 45.5Z" fill="#1ABCFE"/>
</g>
<defs>
<clipPath id="clip0_45_76">
<rect width="61" height="91" fill="white"/>
</clipPath>
</defs>
</svg>
