<svg width="92" height="92" viewBox="0 0 92 92" fill="none" xmlns="http://www.w3.org/2000/svg">
<path d="M9.1051 10.1113H82.8949V81.8886H9.1051V10.1113Z" fill="#0C0824"/>
<path d="M9.10513 10.1114H82.8949V81.8886H9.10513V10.1114ZM5.75 85.2437H86.25V6.75623H5.75V85.2437ZM60.0214 38.9562C57.3706 38.9562 56.465 40.2989 56.465 41.4057C56.465 42.6132 57.0687 43.4527 60.6251 45.2956C65.8921 47.8457 67.5251 50.2924 67.5251 53.8832C67.5251 59.2509 63.434 62.1345 57.8996 62.1345C55.5247 62.2197 53.1646 61.7264 51.0226 60.697C50.7869 60.5963 50.7552 60.4296 50.7552 60.1593V55.223C50.7552 54.8866 50.922 54.786 51.1578 54.9556C53.1685 56.2486 55.509 56.9353 57.8996 56.9336C60.5504 56.9336 61.6572 55.8267 61.6572 54.3173C61.6572 53.1098 60.8868 52.0375 57.4971 50.2924C52.7333 48.0125 50.7552 45.6924 50.7552 41.8399C50.7552 37.513 54.142 33.925 60.0128 33.925C62.0561 33.8399 64.0962 34.1594 66.0158 34.8651C66.1258 34.9373 66.2149 35.0372 66.274 35.1548C66.333 35.2725 66.36 35.4036 66.3521 35.535V40.135C66.3521 40.4024 66.1854 40.572 65.849 40.4713C64.0756 39.4503 62.0588 38.9287 60.0128 38.962L60.0214 38.9562ZM31.1736 42.9467C31.9441 43.0128 32.5479 43.0129 33.8905 43.0129C37.8149 43.0129 41.5035 41.6386 41.5035 36.3055C41.5035 32.0447 38.8528 29.9 34.3936 29.9C33.051 29.9 31.7774 29.9661 31.1736 30.0006V42.9467ZM25.2022 25.1217C25.2022 24.886 25.6709 24.7192 25.9411 24.7192C28.8242 24.6016 31.7094 24.546 34.5949 24.5525C43.8869 24.5525 47.5094 29.6498 47.5094 36.1588C47.5094 44.6775 41.3368 48.3345 33.7582 48.3345C32.4846 48.3345 32.0476 48.2683 31.142 48.2683V61.1483C31.142 61.4157 31.0414 61.5508 30.7395 61.5508H25.6076C25.3402 61.5508 25.2051 61.4502 25.2051 61.1483V25.1361L25.2022 25.1217Z" fill="#31C5F0"/>
</svg>
