<svg width="86" height="86" viewBox="0 0 86 86" fill="none" xmlns="http://www.w3.org/2000/svg">
<path d="M2.30408 5.28542C2.30408 8.20225 4.69774 10.5708 7.64324 10.5708H51.9225C56.9678 10.5708 61.1245 12.1117 64.3925 15.1933C67.6557 18.2774 69.2873 22.2429 69.2873 27.09C69.2873 31.5692 67.6545 35.2385 64.3889 38.098C61.1257 40.8906 56.9702 42.2857 51.9225 42.2833H32.68C29.7273 42.2833 27.3372 44.6483 27.3372 47.5687C27.3372 50.4892 29.7273 52.8542 32.68 52.8542H53.9292L73.0713 83.248C74.2586 85.0827 75.9284 86 78.0808 86C80.4578 86 82.1276 85.0827 83.0903 83.248C84.053 81.3369 83.8679 79.3183 82.5349 77.1922L65.5033 50.1022C70.1043 48.0453 73.7402 45.0353 76.411 41.0722C79.0842 37.0349 80.4207 32.3742 80.4207 27.09C80.4207 21.7293 79.1952 17.0304 76.7442 12.9932C74.3721 8.95594 71.0336 5.79903 66.7288 3.52242C62.424 1.17414 57.4886 0 51.9225 0H7.64683C4.69774 0 2.30408 2.365 2.30408 5.28542Z" fill="white"/>
</svg>
